<mxfile host="Electron" modified="2024-06-26T04:37:24.034Z" agent="Mozilla/5.0 (Windows NT 10.0; Win64; x64) AppleWebKit/537.36 (KHTML, like Gecko) draw.io/24.6.1 Chrome/124.0.6367.207 Electron/30.0.6 Safari/537.36" etag="KKzTbajSL3wutqSPrOmh" version="24.6.1" type="device">
  <diagram id="6a731a19-8d31-9384-78a2-239565b7b9f0" name="Page-1">
    <mxGraphModel dx="1470" dy="1232" grid="0" gridSize="10" guides="1" tooltips="1" connect="1" arrows="1" fold="1" page="1" pageScale="1" pageWidth="1169" pageHeight="827" background="#ffffff" math="0" shadow="0">
      <root>
        <mxCell id="0" />
        <mxCell id="1" parent="0" />
        <mxCell id="1753" value="Contributor 1&lt;div&gt;&lt;span style=&quot;font-size: 12px;&quot;&gt;Permision: Reader&lt;/span&gt;&lt;br&gt;&lt;/div&gt;" style="rounded=1;whiteSpace=wrap;html=1;shadow=0;labelBackgroundColor=none;strokeColor=none;strokeWidth=3;fillColor=#0066CC;fontFamily=Helvetica;fontSize=17;fontColor=#FFFFFF;align=center;spacing=5;fontStyle=1;arcSize=52;perimeterSpacing=2;" parent="1" vertex="1">
          <mxGeometry x="390" y="476" width="150" height="80" as="geometry" />
        </mxCell>
        <mxCell id="1764" value="Administrator&lt;div&gt;&lt;font style=&quot;font-size: 12px;&quot;&gt;Permision: Organizer&lt;/font&gt;&lt;/div&gt;" style="rounded=1;whiteSpace=wrap;html=1;shadow=0;labelBackgroundColor=none;strokeColor=none;strokeWidth=3;fillColor=#FF8000;fontFamily=Helvetica;fontSize=18;fontColor=#FFFFFF;align=center;spacing=5;fontStyle=1;arcSize=7;perimeterSpacing=2;" parent="1" vertex="1">
          <mxGeometry x="180" y="156" width="170" height="80" as="geometry" />
        </mxCell>
        <mxCell id="M4xMk65OGsmEsW8h9o01-1798" value="Contributor 2&lt;div&gt;&lt;span style=&quot;font-size: 12px;&quot;&gt;Permision: Reader&lt;/span&gt;&lt;br&gt;&lt;/div&gt;" style="rounded=1;whiteSpace=wrap;html=1;shadow=0;labelBackgroundColor=none;strokeColor=none;strokeWidth=3;fillColor=#0066CC;fontFamily=Helvetica;fontSize=17;fontColor=#FFFFFF;align=center;spacing=5;fontStyle=1;arcSize=52;perimeterSpacing=2;" parent="1" vertex="1">
          <mxGeometry x="630" y="476" width="150" height="80" as="geometry" />
        </mxCell>
        <mxCell id="M4xMk65OGsmEsW8h9o01-1800" value="Contributor N&lt;div&gt;&lt;span style=&quot;font-size: 12px;&quot;&gt;Permision: Reader&lt;/span&gt;&lt;br&gt;&lt;/div&gt;" style="rounded=1;whiteSpace=wrap;html=1;shadow=0;labelBackgroundColor=none;strokeColor=none;strokeWidth=3;fillColor=#0066CC;fontFamily=Helvetica;fontSize=17;fontColor=#FFFFFF;align=center;spacing=5;fontStyle=1;arcSize=52;perimeterSpacing=2;" parent="1" vertex="1">
          <mxGeometry x="870" y="476" width="150" height="80" as="geometry" />
        </mxCell>
        <mxCell id="PDFZdgZ4Ve9ZiEaHfr4G-1765" value="" style="endArrow=block;html=1;rounded=0;exitX=1;exitY=0.75;exitDx=0;exitDy=0;dashed=1;strokeWidth=6;flowAnimation=1;startFillColor=#3333FF;endFillColor=#FF3333;endFill=1;shadow=0;fixDash=0;fillColor=#d80073;strokeColor=#FF9933;anchorPointDirection=0;entryX=0.003;entryY=0.588;entryDx=0;entryDy=0;entryPerimeter=0;linecap=round;movable=1;resizable=1;rotatable=1;deletable=1;editable=1;locked=0;connectable=1;" edge="1" parent="1" source="1764" target="1749">
          <mxGeometry width="50" height="50" relative="1" as="geometry">
            <mxPoint x="590" y="236" as="sourcePoint" />
            <mxPoint x="720" y="227" as="targetPoint" />
            <Array as="points" />
          </mxGeometry>
        </mxCell>
        <mxCell id="1749" value="Domain&amp;nbsp;&lt;span style=&quot;background-color: initial;&quot;&gt;Repository&lt;/span&gt;&lt;div style=&quot;font-size: 18px;&quot;&gt;&amp;nbsp;(&lt;span style=&quot;background-color: initial;&quot;&gt;Google Drive folder)&lt;/span&gt;&lt;/div&gt;" style="rounded=1;whiteSpace=wrap;html=1;shadow=0;labelBackgroundColor=none;strokeColor=none;strokeWidth=3;fillColor=#2F5B7C;fontFamily=Helvetica;fontSize=18;fontColor=#FFFFFF;align=center;fontStyle=1;spacing=5;arcSize=24;perimeterSpacing=2;fillOpacity=100;" parent="1" vertex="1">
          <mxGeometry x="570" y="120" width="250" height="160" as="geometry" />
        </mxCell>
        <mxCell id="PDFZdgZ4Ve9ZiEaHfr4G-1766" value="" style="endArrow=block;html=1;rounded=0;exitX=0.015;exitY=0.401;exitDx=0;exitDy=0;dashed=1;strokeWidth=6;flowAnimation=1;startFillColor=#3333FF;endFillColor=#FF3333;endFill=1;shadow=0;fixDash=0;fillColor=#d80073;strokeColor=#3399FF;anchorPointDirection=0;exitPerimeter=0;linecap=round;" edge="1" parent="1" source="1749">
          <mxGeometry width="50" height="50" relative="1" as="geometry">
            <mxPoint x="382" y="237" as="sourcePoint" />
            <mxPoint x="350" y="186" as="targetPoint" />
            <Array as="points" />
          </mxGeometry>
        </mxCell>
        <mxCell id="PDFZdgZ4Ve9ZiEaHfr4G-1775" value="&lt;font style=&quot;font-size: 17px;&quot;&gt;Push&lt;/font&gt;" style="edgeLabel;html=1;align=center;verticalAlign=middle;resizable=0;points=[];labelBackgroundColor=none;fontColor=#FF9933;fontSize=17;" vertex="1" connectable="0" parent="PDFZdgZ4Ve9ZiEaHfr4G-1766">
          <mxGeometry x="-0.2197" y="3" relative="1" as="geometry">
            <mxPoint x="266" y="449" as="offset" />
          </mxGeometry>
        </mxCell>
        <mxCell id="PDFZdgZ4Ve9ZiEaHfr4G-1767" value="" style="endArrow=block;html=1;rounded=0;exitX=0.392;exitY=1.002;exitDx=0;exitDy=0;dashed=1;strokeWidth=6;flowAnimation=1;startFillColor=#3333FF;endFillColor=#FF3333;endFill=1;shadow=0;fixDash=0;fillColor=#d80073;strokeColor=#3399FF;anchorPointDirection=0;exitPerimeter=0;entryX=0.407;entryY=0.091;entryDx=0;entryDy=0;entryPerimeter=0;linecap=round;" edge="1" parent="1" target="M4xMk65OGsmEsW8h9o01-1798">
          <mxGeometry width="50" height="50" relative="1" as="geometry">
            <mxPoint x="691.068" y="284.3280000000002" as="sourcePoint" />
            <mxPoint x="690" y="426" as="targetPoint" />
            <Array as="points" />
          </mxGeometry>
        </mxCell>
        <mxCell id="PDFZdgZ4Ve9ZiEaHfr4G-1768" value="" style="endArrow=block;html=1;rounded=0;dashed=1;strokeWidth=6;flowAnimation=1;startFillColor=#3333FF;endFillColor=#FF3333;endFill=1;shadow=0;fixDash=0;fillColor=#d80073;strokeColor=#FF9933;anchorPointDirection=0;linecap=round;" edge="1" parent="1">
          <mxGeometry width="50" height="50" relative="1" as="geometry">
            <mxPoint x="719" y="475" as="sourcePoint" />
            <mxPoint x="719" y="276" as="targetPoint" />
            <Array as="points" />
          </mxGeometry>
        </mxCell>
        <mxCell id="PDFZdgZ4Ve9ZiEaHfr4G-1769" value="" style="endArrow=block;html=1;rounded=0;exitX=0.053;exitY=0.918;exitDx=0;exitDy=0;dashed=1;strokeWidth=6;flowAnimation=1;startFillColor=#3333FF;endFillColor=#FF3333;endFill=1;shadow=0;fixDash=0;fillColor=#d80073;strokeColor=#3399FF;anchorPointDirection=0;exitPerimeter=0;entryX=0.5;entryY=0;entryDx=0;entryDy=0;linecap=round;" edge="1" parent="1" source="1749" target="1753">
          <mxGeometry width="50" height="50" relative="1" as="geometry">
            <mxPoint x="511.528" y="254.3280000000002" as="sourcePoint" />
            <mxPoint x="510.46000000000004" y="396" as="targetPoint" />
            <Array as="points" />
          </mxGeometry>
        </mxCell>
        <mxCell id="PDFZdgZ4Ve9ZiEaHfr4G-1770" value="" style="endArrow=block;html=1;rounded=0;dashed=1;strokeWidth=6;flowAnimation=1;startFillColor=#3333FF;endFillColor=#FF3333;endFill=1;shadow=0;fixDash=0;fillColor=#d80073;strokeColor=#FF9933;anchorPointDirection=0;entryX=0.147;entryY=0.965;entryDx=0;entryDy=0;entryPerimeter=0;jumpStyle=none;linecap=round;" edge="1" parent="1" target="1749">
          <mxGeometry width="50" height="50" relative="1" as="geometry">
            <mxPoint x="500" y="476" as="sourcePoint" />
            <mxPoint x="539.46" y="246" as="targetPoint" />
            <Array as="points" />
          </mxGeometry>
        </mxCell>
        <mxCell id="PDFZdgZ4Ve9ZiEaHfr4G-1771" value="" style="endArrow=block;html=1;rounded=0;exitX=0.962;exitY=0.894;exitDx=0;exitDy=0;dashed=1;strokeWidth=6;flowAnimation=1;startFillColor=#3333FF;endFillColor=#FF3333;endFill=1;shadow=0;fixDash=0;fillColor=#d80073;strokeColor=#3399FF;anchorPointDirection=0;exitPerimeter=0;entryX=0.5;entryY=0;entryDx=0;entryDy=0;linecap=round;" edge="1" parent="1" source="1749" target="M4xMk65OGsmEsW8h9o01-1800">
          <mxGeometry width="50" height="50" relative="1" as="geometry">
            <mxPoint x="897" y="246" as="sourcePoint" />
            <mxPoint x="1009" y="419" as="targetPoint" />
            <Array as="points" />
          </mxGeometry>
        </mxCell>
        <mxCell id="PDFZdgZ4Ve9ZiEaHfr4G-1772" value="" style="endArrow=block;html=1;rounded=0;dashed=1;strokeWidth=6;flowAnimation=1;startFillColor=#3333FF;endFillColor=#FF3333;endFill=1;shadow=0;fixDash=0;fillColor=#d80073;strokeColor=#FF9933;anchorPointDirection=0;exitX=0.25;exitY=0;exitDx=0;exitDy=0;entryX=0.843;entryY=0.955;entryDx=0;entryDy=0;entryPerimeter=0;linecap=round;" edge="1" parent="1" source="M4xMk65OGsmEsW8h9o01-1800" target="1749">
          <mxGeometry width="50" height="50" relative="1" as="geometry">
            <mxPoint x="820" y="401" as="sourcePoint" />
            <mxPoint x="860" y="256" as="targetPoint" />
            <Array as="points" />
          </mxGeometry>
        </mxCell>
        <mxCell id="PDFZdgZ4Ve9ZiEaHfr4G-1773" value="" style="endArrow=block;html=1;rounded=0;dashed=1;strokeWidth=6;flowAnimation=1;startFillColor=#3333FF;endFillColor=#FF3333;endFill=1;shadow=0;fixDash=0;fillColor=#d80073;strokeColor=#FF9933;anchorPointDirection=0;linecap=round;" edge="1" parent="1">
          <mxGeometry width="50" height="50" relative="1" as="geometry">
            <mxPoint x="781.82" y="640.69" as="sourcePoint" />
            <mxPoint x="901.8200000000002" y="640.69" as="targetPoint" />
            <Array as="points" />
          </mxGeometry>
        </mxCell>
        <mxCell id="PDFZdgZ4Ve9ZiEaHfr4G-1774" value="" style="endArrow=block;html=1;rounded=0;dashed=1;strokeWidth=6;flowAnimation=1;startFillColor=#3333FF;endFillColor=#FF3333;endFill=1;shadow=0;fixDash=0;fillColor=#d80073;strokeColor=#3399FF;anchorPointDirection=0;linecap=round;" edge="1" parent="1">
          <mxGeometry width="50" height="50" relative="1" as="geometry">
            <mxPoint x="687" y="642.36" as="sourcePoint" />
            <mxPoint x="567" y="642.36" as="targetPoint" />
            <Array as="points" />
          </mxGeometry>
        </mxCell>
        <mxCell id="PDFZdgZ4Ve9ZiEaHfr4G-1777" value="&lt;font style=&quot;font-size: 17px;&quot;&gt;Pull&lt;/font&gt;" style="edgeLabel;html=1;align=center;verticalAlign=middle;resizable=0;points=[];fontColor=#3399FF;labelBackgroundColor=none;fontSize=17;" vertex="1" connectable="0" parent="1">
          <mxGeometry x="529.9979771156227" y="642.3574638338098" as="geometry" />
        </mxCell>
      </root>
    </mxGraphModel>
  </diagram>
</mxfile>
